<mxfile host="app.diagrams.net" agent="Mozilla/5.0 (X11; Linux x86_64) AppleWebKit/537.36 (KHTML, like Gecko) Chrome/129.0.0.0 Safari/537.36" version="24.8.4">
  <diagram name="Page-1" id="qCv54_TmycXFGsCFX0cK">
    <mxGraphModel dx="900" dy="497" grid="1" gridSize="10" guides="1" tooltips="1" connect="1" arrows="1" fold="1" page="1" pageScale="1" pageWidth="850" pageHeight="1100" background="none" math="0" shadow="0">
      <root>
        <mxCell id="0" />
        <mxCell id="1" parent="0" />
        <mxCell id="mY7H9gLEhY4AyRL41xxg-124" value="" style="group" vertex="1" connectable="0" parent="1">
          <mxGeometry x="60" y="40" width="291.9844357976653" height="510" as="geometry" />
        </mxCell>
        <mxCell id="mY7H9gLEhY4AyRL41xxg-50" value="" style="rounded=0;whiteSpace=wrap;html=1;movable=1;resizable=1;rotatable=1;deletable=1;editable=1;locked=0;connectable=1;fillColor=none;" vertex="1" parent="mY7H9gLEhY4AyRL41xxg-124">
          <mxGeometry width="305.05836575875486" height="510" as="geometry" />
        </mxCell>
        <mxCell id="mY7H9gLEhY4AyRL41xxg-51" value="User" style="text;strokeColor=none;align=center;fillColor=none;html=1;verticalAlign=middle;whiteSpace=wrap;rounded=0;movable=1;resizable=1;rotatable=1;deletable=1;editable=1;locked=0;connectable=1;" vertex="1" parent="mY7H9gLEhY4AyRL41xxg-124">
          <mxGeometry x="119.84435797665368" y="10" width="65.36964980544747" height="30" as="geometry" />
        </mxCell>
        <mxCell id="mY7H9gLEhY4AyRL41xxg-52" value="" style="group;movable=1;resizable=1;rotatable=1;deletable=1;editable=1;locked=0;connectable=1;" vertex="1" connectable="0" parent="mY7H9gLEhY4AyRL41xxg-124">
          <mxGeometry x="19.61089494163424" y="78" width="272.3735408560311" height="30" as="geometry" />
        </mxCell>
        <mxCell id="mY7H9gLEhY4AyRL41xxg-53" value="first_name" style="text;strokeColor=none;align=center;fillColor=none;html=1;verticalAlign=middle;whiteSpace=wrap;rounded=0;" vertex="1" parent="mY7H9gLEhY4AyRL41xxg-52">
          <mxGeometry width="111.93433185864295" height="30" as="geometry" />
        </mxCell>
        <mxCell id="mY7H9gLEhY4AyRL41xxg-54" value="string" style="text;strokeColor=none;align=center;fillColor=none;html=1;verticalAlign=middle;whiteSpace=wrap;rounded=0;" vertex="1" parent="mY7H9gLEhY4AyRL41xxg-52">
          <mxGeometry x="160.43920899738816" width="111.93433185864295" height="30" as="geometry" />
        </mxCell>
        <mxCell id="mY7H9gLEhY4AyRL41xxg-55" value="" style="edgeStyle=orthogonalEdgeStyle;rounded=0;orthogonalLoop=1;jettySize=auto;html=1;" edge="1" parent="mY7H9gLEhY4AyRL41xxg-52" source="mY7H9gLEhY4AyRL41xxg-53" target="mY7H9gLEhY4AyRL41xxg-54">
          <mxGeometry relative="1" as="geometry" />
        </mxCell>
        <mxCell id="mY7H9gLEhY4AyRL41xxg-56" value="" style="group;movable=1;resizable=1;rotatable=1;deletable=1;editable=1;locked=0;connectable=1;" vertex="1" connectable="0" parent="mY7H9gLEhY4AyRL41xxg-124">
          <mxGeometry x="19.61089494163424" y="107" width="272.3735408560311" height="30" as="geometry" />
        </mxCell>
        <mxCell id="mY7H9gLEhY4AyRL41xxg-57" value="last_name" style="text;strokeColor=none;align=center;fillColor=none;html=1;verticalAlign=middle;whiteSpace=wrap;rounded=0;" vertex="1" parent="mY7H9gLEhY4AyRL41xxg-56">
          <mxGeometry width="111.93433185864295" height="30" as="geometry" />
        </mxCell>
        <mxCell id="mY7H9gLEhY4AyRL41xxg-58" value="string" style="text;strokeColor=none;align=center;fillColor=none;html=1;verticalAlign=middle;whiteSpace=wrap;rounded=0;" vertex="1" parent="mY7H9gLEhY4AyRL41xxg-56">
          <mxGeometry x="160.43920899738822" width="111.93433185864295" height="30" as="geometry" />
        </mxCell>
        <mxCell id="mY7H9gLEhY4AyRL41xxg-59" value="" style="edgeStyle=orthogonalEdgeStyle;rounded=0;orthogonalLoop=1;jettySize=auto;html=1;" edge="1" parent="mY7H9gLEhY4AyRL41xxg-56" source="mY7H9gLEhY4AyRL41xxg-57" target="mY7H9gLEhY4AyRL41xxg-58">
          <mxGeometry relative="1" as="geometry" />
        </mxCell>
        <mxCell id="mY7H9gLEhY4AyRL41xxg-60" value="" style="group;movable=1;resizable=1;rotatable=1;deletable=1;editable=1;locked=0;connectable=1;" vertex="1" connectable="0" parent="mY7H9gLEhY4AyRL41xxg-124">
          <mxGeometry x="19.61089494163424" y="137" width="272.3735408560311" height="30" as="geometry" />
        </mxCell>
        <mxCell id="mY7H9gLEhY4AyRL41xxg-61" value="unique_name" style="text;strokeColor=none;align=center;fillColor=none;html=1;verticalAlign=middle;whiteSpace=wrap;rounded=0;" vertex="1" parent="mY7H9gLEhY4AyRL41xxg-60">
          <mxGeometry width="111.93433185864289" height="30" as="geometry" />
        </mxCell>
        <mxCell id="mY7H9gLEhY4AyRL41xxg-62" value="string&amp;nbsp; unique" style="text;strokeColor=none;align=center;fillColor=none;html=1;verticalAlign=middle;whiteSpace=wrap;rounded=0;" vertex="1" parent="mY7H9gLEhY4AyRL41xxg-60">
          <mxGeometry x="160.43920899738814" width="111.93433185864289" height="30" as="geometry" />
        </mxCell>
        <mxCell id="mY7H9gLEhY4AyRL41xxg-63" value="" style="edgeStyle=orthogonalEdgeStyle;rounded=0;orthogonalLoop=1;jettySize=auto;html=1;" edge="1" parent="mY7H9gLEhY4AyRL41xxg-60" source="mY7H9gLEhY4AyRL41xxg-61" target="mY7H9gLEhY4AyRL41xxg-62">
          <mxGeometry relative="1" as="geometry" />
        </mxCell>
        <mxCell id="mY7H9gLEhY4AyRL41xxg-64" value="" style="group;movable=1;resizable=1;rotatable=1;deletable=1;editable=1;locked=0;connectable=1;" vertex="1" connectable="0" parent="mY7H9gLEhY4AyRL41xxg-124">
          <mxGeometry x="19.61089494163424" y="167" width="272.3735408560311" height="30" as="geometry" />
        </mxCell>
        <mxCell id="mY7H9gLEhY4AyRL41xxg-65" value="email" style="text;strokeColor=none;align=center;fillColor=none;html=1;verticalAlign=middle;whiteSpace=wrap;rounded=0;" vertex="1" parent="mY7H9gLEhY4AyRL41xxg-64">
          <mxGeometry width="111.93433185864293" height="30" as="geometry" />
        </mxCell>
        <mxCell id="mY7H9gLEhY4AyRL41xxg-66" value="string unique" style="text;strokeColor=none;align=center;fillColor=none;html=1;verticalAlign=middle;whiteSpace=wrap;rounded=0;" vertex="1" parent="mY7H9gLEhY4AyRL41xxg-64">
          <mxGeometry x="160.43920899738822" width="111.93433185864293" height="30" as="geometry" />
        </mxCell>
        <mxCell id="mY7H9gLEhY4AyRL41xxg-67" value="" style="edgeStyle=orthogonalEdgeStyle;rounded=0;orthogonalLoop=1;jettySize=auto;html=1;" edge="1" parent="mY7H9gLEhY4AyRL41xxg-64" source="mY7H9gLEhY4AyRL41xxg-65" target="mY7H9gLEhY4AyRL41xxg-66">
          <mxGeometry relative="1" as="geometry" />
        </mxCell>
        <mxCell id="mY7H9gLEhY4AyRL41xxg-68" value="" style="group;movable=1;resizable=1;rotatable=1;deletable=1;editable=1;locked=0;connectable=1;" vertex="1" connectable="0" parent="mY7H9gLEhY4AyRL41xxg-124">
          <mxGeometry x="19.61089494163424" y="197" width="272.3735408560311" height="30" as="geometry" />
        </mxCell>
        <mxCell id="mY7H9gLEhY4AyRL41xxg-69" value="is_deleted" style="text;strokeColor=none;align=center;fillColor=none;html=1;verticalAlign=middle;whiteSpace=wrap;rounded=0;" vertex="1" parent="mY7H9gLEhY4AyRL41xxg-68">
          <mxGeometry width="111.93433185864293" height="30" as="geometry" />
        </mxCell>
        <mxCell id="mY7H9gLEhY4AyRL41xxg-70" value="bool" style="text;strokeColor=none;align=center;fillColor=none;html=1;verticalAlign=middle;whiteSpace=wrap;rounded=0;" vertex="1" parent="mY7H9gLEhY4AyRL41xxg-68">
          <mxGeometry x="160.43920899738822" width="111.93433185864293" height="30" as="geometry" />
        </mxCell>
        <mxCell id="mY7H9gLEhY4AyRL41xxg-71" value="" style="edgeStyle=orthogonalEdgeStyle;rounded=0;orthogonalLoop=1;jettySize=auto;html=1;" edge="1" parent="mY7H9gLEhY4AyRL41xxg-68" source="mY7H9gLEhY4AyRL41xxg-69" target="mY7H9gLEhY4AyRL41xxg-70">
          <mxGeometry relative="1" as="geometry" />
        </mxCell>
        <mxCell id="mY7H9gLEhY4AyRL41xxg-72" value="" style="group;movable=1;resizable=1;rotatable=1;deletable=1;editable=1;locked=0;connectable=1;" vertex="1" connectable="0" parent="mY7H9gLEhY4AyRL41xxg-124">
          <mxGeometry x="19.61089494163424" y="227" width="272.3735408560311" height="60" as="geometry" />
        </mxCell>
        <mxCell id="mY7H9gLEhY4AyRL41xxg-73" value="sessionToken" style="text;strokeColor=none;align=center;fillColor=none;html=1;verticalAlign=middle;whiteSpace=wrap;rounded=0;" vertex="1" parent="mY7H9gLEhY4AyRL41xxg-72">
          <mxGeometry width="111.93433185864293" height="30" as="geometry" />
        </mxCell>
        <mxCell id="mY7H9gLEhY4AyRL41xxg-74" value="string" style="text;strokeColor=none;align=center;fillColor=none;html=1;verticalAlign=middle;whiteSpace=wrap;rounded=0;" vertex="1" parent="mY7H9gLEhY4AyRL41xxg-72">
          <mxGeometry x="160.43920899738822" width="111.93433185864293" height="30" as="geometry" />
        </mxCell>
        <mxCell id="mY7H9gLEhY4AyRL41xxg-75" value="" style="edgeStyle=orthogonalEdgeStyle;rounded=0;orthogonalLoop=1;jettySize=auto;html=1;" edge="1" parent="mY7H9gLEhY4AyRL41xxg-72" source="mY7H9gLEhY4AyRL41xxg-73" target="mY7H9gLEhY4AyRL41xxg-74">
          <mxGeometry relative="1" as="geometry" />
        </mxCell>
        <mxCell id="mY7H9gLEhY4AyRL41xxg-76" value="" style="group" vertex="1" connectable="0" parent="mY7H9gLEhY4AyRL41xxg-72">
          <mxGeometry y="30" width="272.3735408560311" height="30" as="geometry" />
        </mxCell>
        <mxCell id="mY7H9gLEhY4AyRL41xxg-77" value="otp" style="text;strokeColor=none;align=center;fillColor=none;html=1;verticalAlign=middle;whiteSpace=wrap;rounded=0;" vertex="1" parent="mY7H9gLEhY4AyRL41xxg-76">
          <mxGeometry width="111.93433185864293" height="30" as="geometry" />
        </mxCell>
        <mxCell id="mY7H9gLEhY4AyRL41xxg-78" value="string" style="text;strokeColor=none;align=center;fillColor=none;html=1;verticalAlign=middle;whiteSpace=wrap;rounded=0;" vertex="1" parent="mY7H9gLEhY4AyRL41xxg-76">
          <mxGeometry x="160.43920899738822" width="111.93433185864293" height="30" as="geometry" />
        </mxCell>
        <mxCell id="mY7H9gLEhY4AyRL41xxg-79" value="" style="edgeStyle=orthogonalEdgeStyle;rounded=0;orthogonalLoop=1;jettySize=auto;html=1;" edge="1" parent="mY7H9gLEhY4AyRL41xxg-76" source="mY7H9gLEhY4AyRL41xxg-77" target="mY7H9gLEhY4AyRL41xxg-78">
          <mxGeometry relative="1" as="geometry" />
        </mxCell>
        <mxCell id="mY7H9gLEhY4AyRL41xxg-81" value="" style="group;movable=1;resizable=1;rotatable=1;deletable=1;editable=1;locked=0;connectable=1;" vertex="1" connectable="0" parent="mY7H9gLEhY4AyRL41xxg-124">
          <mxGeometry x="19.61089494163424" y="287" width="272.3735408560311" height="60" as="geometry" />
        </mxCell>
        <mxCell id="mY7H9gLEhY4AyRL41xxg-82" value="otpExpire" style="text;strokeColor=none;align=center;fillColor=none;html=1;verticalAlign=middle;whiteSpace=wrap;rounded=0;" vertex="1" parent="mY7H9gLEhY4AyRL41xxg-81">
          <mxGeometry width="111.93433185864293" height="30" as="geometry" />
        </mxCell>
        <mxCell id="mY7H9gLEhY4AyRL41xxg-83" value="Date" style="text;strokeColor=none;align=center;fillColor=none;html=1;verticalAlign=middle;whiteSpace=wrap;rounded=0;" vertex="1" parent="mY7H9gLEhY4AyRL41xxg-81">
          <mxGeometry x="160.43920899738822" width="111.93433185864293" height="30" as="geometry" />
        </mxCell>
        <mxCell id="mY7H9gLEhY4AyRL41xxg-84" value="" style="edgeStyle=orthogonalEdgeStyle;rounded=0;orthogonalLoop=1;jettySize=auto;html=1;" edge="1" parent="mY7H9gLEhY4AyRL41xxg-81" source="mY7H9gLEhY4AyRL41xxg-82" target="mY7H9gLEhY4AyRL41xxg-83">
          <mxGeometry relative="1" as="geometry" />
        </mxCell>
        <mxCell id="mY7H9gLEhY4AyRL41xxg-85" value="" style="group" vertex="1" connectable="0" parent="mY7H9gLEhY4AyRL41xxg-81">
          <mxGeometry y="30" width="272.3735408560311" height="30" as="geometry" />
        </mxCell>
        <mxCell id="mY7H9gLEhY4AyRL41xxg-86" value="authToken" style="text;strokeColor=none;align=center;fillColor=none;html=1;verticalAlign=middle;whiteSpace=wrap;rounded=0;" vertex="1" parent="mY7H9gLEhY4AyRL41xxg-85">
          <mxGeometry width="111.93433185864293" height="30" as="geometry" />
        </mxCell>
        <mxCell id="mY7H9gLEhY4AyRL41xxg-87" value="string" style="text;strokeColor=none;align=center;fillColor=none;html=1;verticalAlign=middle;whiteSpace=wrap;rounded=0;" vertex="1" parent="mY7H9gLEhY4AyRL41xxg-85">
          <mxGeometry x="160.43920899738822" width="111.93433185864293" height="30" as="geometry" />
        </mxCell>
        <mxCell id="mY7H9gLEhY4AyRL41xxg-88" value="" style="edgeStyle=orthogonalEdgeStyle;rounded=0;orthogonalLoop=1;jettySize=auto;html=1;" edge="1" parent="mY7H9gLEhY4AyRL41xxg-85" source="mY7H9gLEhY4AyRL41xxg-86" target="mY7H9gLEhY4AyRL41xxg-87">
          <mxGeometry relative="1" as="geometry" />
        </mxCell>
        <mxCell id="mY7H9gLEhY4AyRL41xxg-101" value="" style="group;movable=1;resizable=1;rotatable=1;deletable=1;editable=1;locked=0;connectable=1;" vertex="1" connectable="0" parent="mY7H9gLEhY4AyRL41xxg-124">
          <mxGeometry x="11.984435797665368" y="349" width="272.3735408560311" height="60" as="geometry" />
        </mxCell>
        <mxCell id="mY7H9gLEhY4AyRL41xxg-102" value="device" style="text;strokeColor=none;align=center;fillColor=none;html=1;verticalAlign=middle;whiteSpace=wrap;rounded=0;" vertex="1" parent="mY7H9gLEhY4AyRL41xxg-101">
          <mxGeometry width="111.93433185864293" height="30" as="geometry" />
        </mxCell>
        <mxCell id="mY7H9gLEhY4AyRL41xxg-103" value="mobile,pc" style="text;strokeColor=none;align=center;fillColor=none;html=1;verticalAlign=middle;whiteSpace=wrap;rounded=0;" vertex="1" parent="mY7H9gLEhY4AyRL41xxg-101">
          <mxGeometry x="160.43920899738822" width="111.93433185864293" height="30" as="geometry" />
        </mxCell>
        <mxCell id="mY7H9gLEhY4AyRL41xxg-104" value="" style="edgeStyle=orthogonalEdgeStyle;rounded=0;orthogonalLoop=1;jettySize=auto;html=1;" edge="1" parent="mY7H9gLEhY4AyRL41xxg-101" source="mY7H9gLEhY4AyRL41xxg-102" target="mY7H9gLEhY4AyRL41xxg-103">
          <mxGeometry relative="1" as="geometry" />
        </mxCell>
        <mxCell id="mY7H9gLEhY4AyRL41xxg-105" value="" style="group" vertex="1" connectable="0" parent="mY7H9gLEhY4AyRL41xxg-101">
          <mxGeometry y="30" width="272.3735408560311" height="30" as="geometry" />
        </mxCell>
        <mxCell id="mY7H9gLEhY4AyRL41xxg-106" value="ip_address" style="text;strokeColor=none;align=center;fillColor=none;html=1;verticalAlign=middle;whiteSpace=wrap;rounded=0;" vertex="1" parent="mY7H9gLEhY4AyRL41xxg-105">
          <mxGeometry width="111.93433185864293" height="30" as="geometry" />
        </mxCell>
        <mxCell id="mY7H9gLEhY4AyRL41xxg-107" value="string" style="text;strokeColor=none;align=center;fillColor=none;html=1;verticalAlign=middle;whiteSpace=wrap;rounded=0;" vertex="1" parent="mY7H9gLEhY4AyRL41xxg-105">
          <mxGeometry x="160.43920899738822" width="111.93433185864293" height="30" as="geometry" />
        </mxCell>
        <mxCell id="mY7H9gLEhY4AyRL41xxg-108" value="" style="edgeStyle=orthogonalEdgeStyle;rounded=0;orthogonalLoop=1;jettySize=auto;html=1;" edge="1" parent="mY7H9gLEhY4AyRL41xxg-105" source="mY7H9gLEhY4AyRL41xxg-106" target="mY7H9gLEhY4AyRL41xxg-107">
          <mxGeometry relative="1" as="geometry" />
        </mxCell>
        <mxCell id="mY7H9gLEhY4AyRL41xxg-109" value="" style="group;movable=1;resizable=1;rotatable=1;deletable=1;editable=1;locked=0;connectable=1;" vertex="1" connectable="0" parent="mY7H9gLEhY4AyRL41xxg-124">
          <mxGeometry x="6.536964980544747" y="409" width="285.4474708171206" height="45.5" as="geometry" />
        </mxCell>
        <mxCell id="mY7H9gLEhY4AyRL41xxg-110" value="os" style="text;strokeColor=none;align=center;fillColor=none;html=1;verticalAlign=middle;whiteSpace=wrap;rounded=0;" vertex="1" parent="mY7H9gLEhY4AyRL41xxg-109">
          <mxGeometry width="116.83982050583445" height="15.500000000000002" as="geometry" />
        </mxCell>
        <mxCell id="mY7H9gLEhY4AyRL41xxg-111" value="android,linux,mac" style="text;strokeColor=none;align=center;fillColor=none;html=1;verticalAlign=middle;whiteSpace=wrap;rounded=0;" vertex="1" parent="mY7H9gLEhY4AyRL41xxg-109">
          <mxGeometry x="167.47040939169602" width="116.83982050583445" height="15.500000000000002" as="geometry" />
        </mxCell>
        <mxCell id="mY7H9gLEhY4AyRL41xxg-112" value="" style="edgeStyle=orthogonalEdgeStyle;rounded=0;orthogonalLoop=1;jettySize=auto;html=1;" edge="1" parent="mY7H9gLEhY4AyRL41xxg-109" source="mY7H9gLEhY4AyRL41xxg-110" target="mY7H9gLEhY4AyRL41xxg-111">
          <mxGeometry relative="1" as="geometry" />
        </mxCell>
        <mxCell id="mY7H9gLEhY4AyRL41xxg-214" value="" style="group" vertex="1" connectable="0" parent="mY7H9gLEhY4AyRL41xxg-109">
          <mxGeometry x="-0.0025291828793854165" y="15.5" width="272.3735408560311" height="30" as="geometry" />
        </mxCell>
        <mxCell id="mY7H9gLEhY4AyRL41xxg-215" value="email_verified" style="text;strokeColor=none;align=center;fillColor=none;html=1;verticalAlign=middle;whiteSpace=wrap;rounded=0;" vertex="1" parent="mY7H9gLEhY4AyRL41xxg-214">
          <mxGeometry width="111.93433185864293" height="30" as="geometry" />
        </mxCell>
        <mxCell id="mY7H9gLEhY4AyRL41xxg-216" value="boolean" style="text;strokeColor=none;align=center;fillColor=none;html=1;verticalAlign=middle;whiteSpace=wrap;rounded=0;" vertex="1" parent="mY7H9gLEhY4AyRL41xxg-214">
          <mxGeometry x="160.43920899738822" width="111.93433185864293" height="30" as="geometry" />
        </mxCell>
        <mxCell id="mY7H9gLEhY4AyRL41xxg-217" value="" style="edgeStyle=orthogonalEdgeStyle;rounded=0;orthogonalLoop=1;jettySize=auto;html=1;" edge="1" parent="mY7H9gLEhY4AyRL41xxg-214" source="mY7H9gLEhY4AyRL41xxg-215" target="mY7H9gLEhY4AyRL41xxg-216">
          <mxGeometry relative="1" as="geometry" />
        </mxCell>
        <mxCell id="mY7H9gLEhY4AyRL41xxg-118" value="" style="group;movable=1;resizable=1;rotatable=1;deletable=1;editable=1;locked=0;connectable=1;" vertex="1" connectable="0" parent="mY7H9gLEhY4AyRL41xxg-124">
          <mxGeometry x="19.61089494163424" y="50" width="272.3735408560311" height="30" as="geometry" />
        </mxCell>
        <mxCell id="mY7H9gLEhY4AyRL41xxg-119" value="_id" style="text;strokeColor=none;align=center;fillColor=none;html=1;verticalAlign=middle;whiteSpace=wrap;rounded=0;" vertex="1" parent="mY7H9gLEhY4AyRL41xxg-118">
          <mxGeometry width="111.93433185864295" height="30" as="geometry" />
        </mxCell>
        <mxCell id="mY7H9gLEhY4AyRL41xxg-120" value="mongoose.object" style="text;strokeColor=none;align=center;fillColor=none;html=1;verticalAlign=middle;whiteSpace=wrap;rounded=0;" vertex="1" parent="mY7H9gLEhY4AyRL41xxg-118">
          <mxGeometry x="160.43920899738816" width="111.93433185864295" height="30" as="geometry" />
        </mxCell>
        <mxCell id="mY7H9gLEhY4AyRL41xxg-121" value="" style="edgeStyle=orthogonalEdgeStyle;rounded=0;orthogonalLoop=1;jettySize=auto;html=1;" edge="1" parent="mY7H9gLEhY4AyRL41xxg-118" source="mY7H9gLEhY4AyRL41xxg-119" target="mY7H9gLEhY4AyRL41xxg-120">
          <mxGeometry relative="1" as="geometry" />
        </mxCell>
        <mxCell id="mY7H9gLEhY4AyRL41xxg-146" value="" style="group" vertex="1" connectable="0" parent="1">
          <mxGeometry x="487" y="42" width="320" height="220" as="geometry" />
        </mxCell>
        <mxCell id="mY7H9gLEhY4AyRL41xxg-126" value="" style="rounded=0;whiteSpace=wrap;html=1;movable=1;resizable=1;rotatable=1;deletable=1;editable=1;locked=0;connectable=1;" vertex="1" parent="mY7H9gLEhY4AyRL41xxg-146">
          <mxGeometry width="320" height="220" as="geometry" />
        </mxCell>
        <mxCell id="mY7H9gLEhY4AyRL41xxg-128" value="Friends" style="text;strokeColor=none;align=center;fillColor=none;html=1;verticalAlign=middle;whiteSpace=wrap;rounded=0;" vertex="1" parent="mY7H9gLEhY4AyRL41xxg-146">
          <mxGeometry x="130" y="20" width="60" height="30" as="geometry" />
        </mxCell>
        <mxCell id="mY7H9gLEhY4AyRL41xxg-133" value="" style="group" vertex="1" connectable="0" parent="mY7H9gLEhY4AyRL41xxg-146">
          <mxGeometry x="13" y="68" width="270" height="30" as="geometry" />
        </mxCell>
        <mxCell id="mY7H9gLEhY4AyRL41xxg-131" value="" style="edgeStyle=orthogonalEdgeStyle;rounded=0;orthogonalLoop=1;jettySize=auto;html=1;" edge="1" parent="mY7H9gLEhY4AyRL41xxg-133" source="mY7H9gLEhY4AyRL41xxg-129" target="mY7H9gLEhY4AyRL41xxg-130">
          <mxGeometry relative="1" as="geometry" />
        </mxCell>
        <mxCell id="mY7H9gLEhY4AyRL41xxg-129" value="_id" style="text;strokeColor=none;align=center;fillColor=none;html=1;verticalAlign=middle;whiteSpace=wrap;rounded=0;" vertex="1" parent="mY7H9gLEhY4AyRL41xxg-133">
          <mxGeometry width="60" height="30" as="geometry" />
        </mxCell>
        <mxCell id="mY7H9gLEhY4AyRL41xxg-130" value="mongoose.object" style="text;strokeColor=none;align=center;fillColor=none;html=1;verticalAlign=middle;whiteSpace=wrap;rounded=0;" vertex="1" parent="mY7H9gLEhY4AyRL41xxg-133">
          <mxGeometry x="180" width="90" height="30" as="geometry" />
        </mxCell>
        <mxCell id="mY7H9gLEhY4AyRL41xxg-134" value="" style="group" vertex="1" connectable="0" parent="mY7H9gLEhY4AyRL41xxg-146">
          <mxGeometry x="15" y="113" width="270" height="30" as="geometry" />
        </mxCell>
        <mxCell id="mY7H9gLEhY4AyRL41xxg-135" value="" style="edgeStyle=orthogonalEdgeStyle;rounded=0;orthogonalLoop=1;jettySize=auto;html=1;" edge="1" parent="mY7H9gLEhY4AyRL41xxg-134" source="mY7H9gLEhY4AyRL41xxg-136" target="mY7H9gLEhY4AyRL41xxg-137">
          <mxGeometry relative="1" as="geometry" />
        </mxCell>
        <mxCell id="mY7H9gLEhY4AyRL41xxg-136" value="user_id" style="text;strokeColor=none;align=center;fillColor=none;html=1;verticalAlign=middle;whiteSpace=wrap;rounded=0;" vertex="1" parent="mY7H9gLEhY4AyRL41xxg-134">
          <mxGeometry width="60" height="30" as="geometry" />
        </mxCell>
        <mxCell id="mY7H9gLEhY4AyRL41xxg-137" value="UserModel ref mongoose.object" style="text;strokeColor=none;align=center;fillColor=none;html=1;verticalAlign=middle;whiteSpace=wrap;rounded=0;" vertex="1" parent="mY7H9gLEhY4AyRL41xxg-134">
          <mxGeometry x="180" width="90" height="30" as="geometry" />
        </mxCell>
        <mxCell id="mY7H9gLEhY4AyRL41xxg-138" value="" style="group" vertex="1" connectable="0" parent="mY7H9gLEhY4AyRL41xxg-146">
          <mxGeometry x="18" y="162" width="270" height="30" as="geometry" />
        </mxCell>
        <mxCell id="mY7H9gLEhY4AyRL41xxg-139" value="" style="edgeStyle=orthogonalEdgeStyle;rounded=0;orthogonalLoop=1;jettySize=auto;html=1;" edge="1" parent="mY7H9gLEhY4AyRL41xxg-138" source="mY7H9gLEhY4AyRL41xxg-140" target="mY7H9gLEhY4AyRL41xxg-141">
          <mxGeometry relative="1" as="geometry" />
        </mxCell>
        <mxCell id="mY7H9gLEhY4AyRL41xxg-140" value="friend_id" style="text;strokeColor=none;align=center;fillColor=none;html=1;verticalAlign=middle;whiteSpace=wrap;rounded=0;" vertex="1" parent="mY7H9gLEhY4AyRL41xxg-138">
          <mxGeometry width="60" height="30" as="geometry" />
        </mxCell>
        <mxCell id="mY7H9gLEhY4AyRL41xxg-141" value="UserModel ref mongoose.object" style="text;strokeColor=none;align=center;fillColor=none;html=1;verticalAlign=middle;whiteSpace=wrap;rounded=0;" vertex="1" parent="mY7H9gLEhY4AyRL41xxg-138">
          <mxGeometry x="180" width="90" height="30" as="geometry" />
        </mxCell>
        <mxCell id="mY7H9gLEhY4AyRL41xxg-147" value="" style="group" vertex="1" connectable="0" parent="1">
          <mxGeometry x="430" y="290" width="410" height="220" as="geometry" />
        </mxCell>
        <mxCell id="mY7H9gLEhY4AyRL41xxg-148" value="" style="rounded=0;whiteSpace=wrap;html=1;movable=1;resizable=1;rotatable=1;deletable=1;editable=1;locked=0;connectable=1;" vertex="1" parent="mY7H9gLEhY4AyRL41xxg-147">
          <mxGeometry width="410" height="220" as="geometry" />
        </mxCell>
        <mxCell id="mY7H9gLEhY4AyRL41xxg-149" value="Friends Request" style="text;strokeColor=none;align=center;fillColor=none;html=1;verticalAlign=middle;whiteSpace=wrap;rounded=0;" vertex="1" parent="mY7H9gLEhY4AyRL41xxg-147">
          <mxGeometry x="166.5625" y="20" width="128.125" height="30" as="geometry" />
        </mxCell>
        <mxCell id="mY7H9gLEhY4AyRL41xxg-150" value="" style="group" vertex="1" connectable="0" parent="mY7H9gLEhY4AyRL41xxg-147">
          <mxGeometry x="16.65625" y="68" width="345.9375" height="30" as="geometry" />
        </mxCell>
        <mxCell id="mY7H9gLEhY4AyRL41xxg-151" value="" style="edgeStyle=orthogonalEdgeStyle;rounded=0;orthogonalLoop=1;jettySize=auto;html=1;" edge="1" parent="mY7H9gLEhY4AyRL41xxg-150" source="mY7H9gLEhY4AyRL41xxg-152" target="mY7H9gLEhY4AyRL41xxg-153">
          <mxGeometry relative="1" as="geometry" />
        </mxCell>
        <mxCell id="mY7H9gLEhY4AyRL41xxg-152" value="_id" style="text;strokeColor=none;align=center;fillColor=none;html=1;verticalAlign=middle;whiteSpace=wrap;rounded=0;" vertex="1" parent="mY7H9gLEhY4AyRL41xxg-150">
          <mxGeometry width="76.875" height="30" as="geometry" />
        </mxCell>
        <mxCell id="mY7H9gLEhY4AyRL41xxg-153" value="mongoose.object" style="text;strokeColor=none;align=center;fillColor=none;html=1;verticalAlign=middle;whiteSpace=wrap;rounded=0;" vertex="1" parent="mY7H9gLEhY4AyRL41xxg-150">
          <mxGeometry x="230.625" width="115.3125" height="30" as="geometry" />
        </mxCell>
        <mxCell id="mY7H9gLEhY4AyRL41xxg-154" value="" style="group" vertex="1" connectable="0" parent="mY7H9gLEhY4AyRL41xxg-147">
          <mxGeometry x="19.21875" y="113" width="345.9375" height="30" as="geometry" />
        </mxCell>
        <mxCell id="mY7H9gLEhY4AyRL41xxg-155" value="" style="edgeStyle=orthogonalEdgeStyle;rounded=0;orthogonalLoop=1;jettySize=auto;html=1;" edge="1" parent="mY7H9gLEhY4AyRL41xxg-154" source="mY7H9gLEhY4AyRL41xxg-156" target="mY7H9gLEhY4AyRL41xxg-157">
          <mxGeometry relative="1" as="geometry" />
        </mxCell>
        <mxCell id="mY7H9gLEhY4AyRL41xxg-156" value="user_id" style="text;strokeColor=none;align=center;fillColor=none;html=1;verticalAlign=middle;whiteSpace=wrap;rounded=0;" vertex="1" parent="mY7H9gLEhY4AyRL41xxg-154">
          <mxGeometry width="76.875" height="30" as="geometry" />
        </mxCell>
        <mxCell id="mY7H9gLEhY4AyRL41xxg-157" value="UserModel ref mongoose.object" style="text;strokeColor=none;align=center;fillColor=none;html=1;verticalAlign=middle;whiteSpace=wrap;rounded=0;" vertex="1" parent="mY7H9gLEhY4AyRL41xxg-154">
          <mxGeometry x="230.625" width="115.3125" height="30" as="geometry" />
        </mxCell>
        <mxCell id="mY7H9gLEhY4AyRL41xxg-158" value="" style="group" vertex="1" connectable="0" parent="mY7H9gLEhY4AyRL41xxg-147">
          <mxGeometry x="23.0625" y="162" width="345.9375" height="30" as="geometry" />
        </mxCell>
        <mxCell id="mY7H9gLEhY4AyRL41xxg-159" value="" style="edgeStyle=orthogonalEdgeStyle;rounded=0;orthogonalLoop=1;jettySize=auto;html=1;" edge="1" parent="mY7H9gLEhY4AyRL41xxg-158" source="mY7H9gLEhY4AyRL41xxg-160" target="mY7H9gLEhY4AyRL41xxg-161">
          <mxGeometry relative="1" as="geometry" />
        </mxCell>
        <mxCell id="mY7H9gLEhY4AyRL41xxg-160" value="request_id" style="text;strokeColor=none;align=center;fillColor=none;html=1;verticalAlign=middle;whiteSpace=wrap;rounded=0;" vertex="1" parent="mY7H9gLEhY4AyRL41xxg-158">
          <mxGeometry width="76.875" height="30" as="geometry" />
        </mxCell>
        <mxCell id="mY7H9gLEhY4AyRL41xxg-161" value="UserModel ref mongoose.object" style="text;strokeColor=none;align=center;fillColor=none;html=1;verticalAlign=middle;whiteSpace=wrap;rounded=0;" vertex="1" parent="mY7H9gLEhY4AyRL41xxg-158">
          <mxGeometry x="230.625" width="115.3125" height="30" as="geometry" />
        </mxCell>
        <mxCell id="mY7H9gLEhY4AyRL41xxg-162" value="" style="group" vertex="1" connectable="0" parent="1">
          <mxGeometry x="20" y="590" width="410" height="220" as="geometry" />
        </mxCell>
        <mxCell id="mY7H9gLEhY4AyRL41xxg-163" value="" style="rounded=0;whiteSpace=wrap;html=1;movable=1;resizable=1;rotatable=1;deletable=1;editable=1;locked=0;connectable=1;" vertex="1" parent="mY7H9gLEhY4AyRL41xxg-162">
          <mxGeometry width="410" height="220" as="geometry" />
        </mxCell>
        <mxCell id="mY7H9gLEhY4AyRL41xxg-164" value="Blocked User" style="text;strokeColor=none;align=center;fillColor=none;html=1;verticalAlign=middle;whiteSpace=wrap;rounded=0;" vertex="1" parent="mY7H9gLEhY4AyRL41xxg-162">
          <mxGeometry x="166.5625" y="20" width="128.125" height="30" as="geometry" />
        </mxCell>
        <mxCell id="mY7H9gLEhY4AyRL41xxg-165" value="" style="group" vertex="1" connectable="0" parent="mY7H9gLEhY4AyRL41xxg-162">
          <mxGeometry x="16.65625" y="68" width="345.9375" height="30" as="geometry" />
        </mxCell>
        <mxCell id="mY7H9gLEhY4AyRL41xxg-166" value="" style="edgeStyle=orthogonalEdgeStyle;rounded=0;orthogonalLoop=1;jettySize=auto;html=1;" edge="1" parent="mY7H9gLEhY4AyRL41xxg-165" source="mY7H9gLEhY4AyRL41xxg-167" target="mY7H9gLEhY4AyRL41xxg-168">
          <mxGeometry relative="1" as="geometry" />
        </mxCell>
        <mxCell id="mY7H9gLEhY4AyRL41xxg-167" value="_id" style="text;strokeColor=none;align=center;fillColor=none;html=1;verticalAlign=middle;whiteSpace=wrap;rounded=0;" vertex="1" parent="mY7H9gLEhY4AyRL41xxg-165">
          <mxGeometry width="76.875" height="30" as="geometry" />
        </mxCell>
        <mxCell id="mY7H9gLEhY4AyRL41xxg-168" value="mongoose.object" style="text;strokeColor=none;align=center;fillColor=none;html=1;verticalAlign=middle;whiteSpace=wrap;rounded=0;" vertex="1" parent="mY7H9gLEhY4AyRL41xxg-165">
          <mxGeometry x="230.625" width="115.3125" height="30" as="geometry" />
        </mxCell>
        <mxCell id="mY7H9gLEhY4AyRL41xxg-169" value="" style="group" vertex="1" connectable="0" parent="mY7H9gLEhY4AyRL41xxg-162">
          <mxGeometry x="19.21875" y="113" width="345.9375" height="30" as="geometry" />
        </mxCell>
        <mxCell id="mY7H9gLEhY4AyRL41xxg-170" value="" style="edgeStyle=orthogonalEdgeStyle;rounded=0;orthogonalLoop=1;jettySize=auto;html=1;" edge="1" parent="mY7H9gLEhY4AyRL41xxg-169" source="mY7H9gLEhY4AyRL41xxg-171" target="mY7H9gLEhY4AyRL41xxg-172">
          <mxGeometry relative="1" as="geometry" />
        </mxCell>
        <mxCell id="mY7H9gLEhY4AyRL41xxg-171" value="user_id" style="text;strokeColor=none;align=center;fillColor=none;html=1;verticalAlign=middle;whiteSpace=wrap;rounded=0;" vertex="1" parent="mY7H9gLEhY4AyRL41xxg-169">
          <mxGeometry width="76.875" height="30" as="geometry" />
        </mxCell>
        <mxCell id="mY7H9gLEhY4AyRL41xxg-172" value="UserModel ref mongoose.object" style="text;strokeColor=none;align=center;fillColor=none;html=1;verticalAlign=middle;whiteSpace=wrap;rounded=0;" vertex="1" parent="mY7H9gLEhY4AyRL41xxg-169">
          <mxGeometry x="230.625" width="115.3125" height="30" as="geometry" />
        </mxCell>
        <mxCell id="mY7H9gLEhY4AyRL41xxg-173" value="" style="group" vertex="1" connectable="0" parent="mY7H9gLEhY4AyRL41xxg-162">
          <mxGeometry x="23.0625" y="162" width="345.9375" height="30" as="geometry" />
        </mxCell>
        <mxCell id="mY7H9gLEhY4AyRL41xxg-174" value="" style="edgeStyle=orthogonalEdgeStyle;rounded=0;orthogonalLoop=1;jettySize=auto;html=1;" edge="1" parent="mY7H9gLEhY4AyRL41xxg-173" source="mY7H9gLEhY4AyRL41xxg-175" target="mY7H9gLEhY4AyRL41xxg-176">
          <mxGeometry relative="1" as="geometry" />
        </mxCell>
        <mxCell id="mY7H9gLEhY4AyRL41xxg-175" value="blocked_id" style="text;strokeColor=none;align=center;fillColor=none;html=1;verticalAlign=middle;whiteSpace=wrap;rounded=0;" vertex="1" parent="mY7H9gLEhY4AyRL41xxg-173">
          <mxGeometry width="76.875" height="30" as="geometry" />
        </mxCell>
        <mxCell id="mY7H9gLEhY4AyRL41xxg-176" value="UserModel ref mongoose.object" style="text;strokeColor=none;align=center;fillColor=none;html=1;verticalAlign=middle;whiteSpace=wrap;rounded=0;" vertex="1" parent="mY7H9gLEhY4AyRL41xxg-173">
          <mxGeometry x="230.625" width="115.3125" height="30" as="geometry" />
        </mxCell>
        <mxCell id="mY7H9gLEhY4AyRL41xxg-178" value="" style="group;movable=1;resizable=1;rotatable=1;deletable=1;editable=1;locked=0;connectable=1;" vertex="1" connectable="0" parent="1">
          <mxGeometry x="490" y="590" width="410" height="350" as="geometry" />
        </mxCell>
        <mxCell id="mY7H9gLEhY4AyRL41xxg-179" value="" style="rounded=0;whiteSpace=wrap;html=1;movable=0;resizable=0;rotatable=0;deletable=0;editable=0;locked=1;connectable=0;" vertex="1" parent="mY7H9gLEhY4AyRL41xxg-178">
          <mxGeometry width="410" height="350" as="geometry" />
        </mxCell>
        <mxCell id="mY7H9gLEhY4AyRL41xxg-180" value="Message" style="text;strokeColor=none;align=center;fillColor=none;html=1;verticalAlign=middle;whiteSpace=wrap;rounded=0;" vertex="1" parent="mY7H9gLEhY4AyRL41xxg-178">
          <mxGeometry x="131.97" y="10" width="128.12" height="30" as="geometry" />
        </mxCell>
        <mxCell id="mY7H9gLEhY4AyRL41xxg-181" value="" style="group" vertex="1" connectable="0" parent="mY7H9gLEhY4AyRL41xxg-178">
          <mxGeometry x="10" y="88" width="345.94" height="22" as="geometry" />
        </mxCell>
        <mxCell id="mY7H9gLEhY4AyRL41xxg-182" value="" style="edgeStyle=orthogonalEdgeStyle;rounded=0;orthogonalLoop=1;jettySize=auto;html=1;" edge="1" parent="mY7H9gLEhY4AyRL41xxg-181" source="mY7H9gLEhY4AyRL41xxg-183" target="mY7H9gLEhY4AyRL41xxg-184">
          <mxGeometry relative="1" as="geometry" />
        </mxCell>
        <mxCell id="mY7H9gLEhY4AyRL41xxg-183" value="_id" style="text;strokeColor=none;align=center;fillColor=none;html=1;verticalAlign=middle;whiteSpace=wrap;rounded=0;" vertex="1" parent="mY7H9gLEhY4AyRL41xxg-181">
          <mxGeometry width="76.87555555555555" height="21.999999999999996" as="geometry" />
        </mxCell>
        <mxCell id="mY7H9gLEhY4AyRL41xxg-184" value="mongoose.object" style="text;strokeColor=none;align=center;fillColor=none;html=1;verticalAlign=middle;whiteSpace=wrap;rounded=0;" vertex="1" parent="mY7H9gLEhY4AyRL41xxg-181">
          <mxGeometry x="230.62666666666664" width="115.31333333333332" height="21.999999999999996" as="geometry" />
        </mxCell>
        <mxCell id="mY7H9gLEhY4AyRL41xxg-185" value="" style="group" vertex="1" connectable="0" parent="mY7H9gLEhY4AyRL41xxg-178">
          <mxGeometry x="20" y="117" width="345.94" height="23" as="geometry" />
        </mxCell>
        <mxCell id="mY7H9gLEhY4AyRL41xxg-186" value="" style="edgeStyle=orthogonalEdgeStyle;rounded=0;orthogonalLoop=1;jettySize=auto;html=1;" edge="1" parent="mY7H9gLEhY4AyRL41xxg-185" source="mY7H9gLEhY4AyRL41xxg-187" target="mY7H9gLEhY4AyRL41xxg-188">
          <mxGeometry relative="1" as="geometry" />
        </mxCell>
        <mxCell id="mY7H9gLEhY4AyRL41xxg-187" value="user_id" style="text;strokeColor=none;align=center;fillColor=none;html=1;verticalAlign=middle;whiteSpace=wrap;rounded=0;" vertex="1" parent="mY7H9gLEhY4AyRL41xxg-185">
          <mxGeometry width="76.87555555555555" height="23" as="geometry" />
        </mxCell>
        <mxCell id="mY7H9gLEhY4AyRL41xxg-188" value="UserModel ref mongoose.object" style="text;strokeColor=none;align=center;fillColor=none;html=1;verticalAlign=middle;whiteSpace=wrap;rounded=0;" vertex="1" parent="mY7H9gLEhY4AyRL41xxg-185">
          <mxGeometry x="230.62666666666664" width="115.31333333333332" height="23" as="geometry" />
        </mxCell>
        <mxCell id="mY7H9gLEhY4AyRL41xxg-189" value="" style="group;movable=1;resizable=1;rotatable=1;deletable=1;editable=1;locked=0;connectable=1;" vertex="1" connectable="0" parent="mY7H9gLEhY4AyRL41xxg-178">
          <mxGeometry x="23" y="149" width="345.94" height="28" as="geometry" />
        </mxCell>
        <mxCell id="mY7H9gLEhY4AyRL41xxg-190" value="" style="edgeStyle=orthogonalEdgeStyle;rounded=0;orthogonalLoop=1;jettySize=auto;html=1;" edge="1" parent="mY7H9gLEhY4AyRL41xxg-189" source="mY7H9gLEhY4AyRL41xxg-191" target="mY7H9gLEhY4AyRL41xxg-192">
          <mxGeometry relative="1" as="geometry" />
        </mxCell>
        <mxCell id="mY7H9gLEhY4AyRL41xxg-191" value="is_group" style="text;strokeColor=none;align=center;fillColor=none;html=1;verticalAlign=middle;whiteSpace=wrap;rounded=0;" vertex="1" parent="mY7H9gLEhY4AyRL41xxg-189">
          <mxGeometry width="76.87555555555555" height="28" as="geometry" />
        </mxCell>
        <mxCell id="mY7H9gLEhY4AyRL41xxg-192" value="bool" style="text;strokeColor=none;align=center;fillColor=none;html=1;verticalAlign=middle;whiteSpace=wrap;rounded=0;" vertex="1" parent="mY7H9gLEhY4AyRL41xxg-189">
          <mxGeometry x="230.62666666666664" width="115.31333333333332" height="28" as="geometry" />
        </mxCell>
        <mxCell id="mY7H9gLEhY4AyRL41xxg-198" value="" style="group;movable=1;resizable=1;rotatable=1;deletable=1;editable=1;locked=0;connectable=1;" vertex="1" connectable="0" parent="mY7H9gLEhY4AyRL41xxg-178">
          <mxGeometry x="23.059999999999945" y="177" width="345.94" height="28" as="geometry" />
        </mxCell>
        <mxCell id="mY7H9gLEhY4AyRL41xxg-199" value="" style="edgeStyle=orthogonalEdgeStyle;rounded=0;orthogonalLoop=1;jettySize=auto;html=1;" edge="1" parent="mY7H9gLEhY4AyRL41xxg-198" source="mY7H9gLEhY4AyRL41xxg-200" target="mY7H9gLEhY4AyRL41xxg-201">
          <mxGeometry relative="1" as="geometry" />
        </mxCell>
        <mxCell id="mY7H9gLEhY4AyRL41xxg-200" value="group_id" style="text;strokeColor=none;align=center;fillColor=none;html=1;verticalAlign=middle;whiteSpace=wrap;rounded=0;" vertex="1" parent="mY7H9gLEhY4AyRL41xxg-198">
          <mxGeometry width="76.87555555555555" height="28" as="geometry" />
        </mxCell>
        <mxCell id="mY7H9gLEhY4AyRL41xxg-201" value="object id not required" style="text;strokeColor=none;align=center;fillColor=none;html=1;verticalAlign=middle;whiteSpace=wrap;rounded=0;" vertex="1" parent="mY7H9gLEhY4AyRL41xxg-198">
          <mxGeometry x="230.62666666666664" width="115.31333333333332" height="28" as="geometry" />
        </mxCell>
        <mxCell id="mY7H9gLEhY4AyRL41xxg-202" value="" style="group;movable=1;resizable=1;rotatable=1;deletable=1;editable=1;locked=0;connectable=1;" vertex="1" connectable="0" parent="mY7H9gLEhY4AyRL41xxg-178">
          <mxGeometry x="18.999999999999943" y="209" width="345.94" height="28" as="geometry" />
        </mxCell>
        <mxCell id="mY7H9gLEhY4AyRL41xxg-203" value="" style="edgeStyle=orthogonalEdgeStyle;rounded=0;orthogonalLoop=1;jettySize=auto;html=1;" edge="1" parent="mY7H9gLEhY4AyRL41xxg-202" source="mY7H9gLEhY4AyRL41xxg-204" target="mY7H9gLEhY4AyRL41xxg-205">
          <mxGeometry relative="1" as="geometry" />
        </mxCell>
        <mxCell id="mY7H9gLEhY4AyRL41xxg-204" value="reciver_id" style="text;strokeColor=none;align=center;fillColor=none;html=1;verticalAlign=middle;whiteSpace=wrap;rounded=0;" vertex="1" parent="mY7H9gLEhY4AyRL41xxg-202">
          <mxGeometry width="76.87555555555555" height="28" as="geometry" />
        </mxCell>
        <mxCell id="mY7H9gLEhY4AyRL41xxg-205" value="User Model&amp;gt; object id not required" style="text;strokeColor=none;align=center;fillColor=none;html=1;verticalAlign=middle;whiteSpace=wrap;rounded=0;" vertex="1" parent="mY7H9gLEhY4AyRL41xxg-202">
          <mxGeometry x="230.62666666666664" width="115.31333333333332" height="28" as="geometry" />
        </mxCell>
        <mxCell id="mY7H9gLEhY4AyRL41xxg-207" value="" style="group;movable=1;resizable=1;rotatable=1;deletable=1;editable=1;locked=0;connectable=1;" vertex="1" connectable="0" parent="mY7H9gLEhY4AyRL41xxg-178">
          <mxGeometry x="20" y="250" width="345.94" height="28" as="geometry" />
        </mxCell>
        <mxCell id="mY7H9gLEhY4AyRL41xxg-208" value="" style="edgeStyle=orthogonalEdgeStyle;rounded=0;orthogonalLoop=1;jettySize=auto;html=1;" edge="1" parent="mY7H9gLEhY4AyRL41xxg-207" source="mY7H9gLEhY4AyRL41xxg-209" target="mY7H9gLEhY4AyRL41xxg-210">
          <mxGeometry relative="1" as="geometry" />
        </mxCell>
        <mxCell id="mY7H9gLEhY4AyRL41xxg-209" value="is_deleted" style="text;strokeColor=none;align=center;fillColor=none;html=1;verticalAlign=middle;whiteSpace=wrap;rounded=0;" vertex="1" parent="mY7H9gLEhY4AyRL41xxg-207">
          <mxGeometry width="76.87555555555555" height="28" as="geometry" />
        </mxCell>
        <mxCell id="mY7H9gLEhY4AyRL41xxg-210" value="boolean" style="text;strokeColor=none;align=center;fillColor=none;html=1;verticalAlign=middle;whiteSpace=wrap;rounded=0;" vertex="1" parent="mY7H9gLEhY4AyRL41xxg-207">
          <mxGeometry x="230.62666666666664" width="115.31333333333332" height="28" as="geometry" />
        </mxCell>
        <mxCell id="mY7H9gLEhY4AyRL41xxg-239" value="" style="group" vertex="1" connectable="0" parent="1">
          <mxGeometry x="870" y="42" width="440" height="310" as="geometry" />
        </mxCell>
        <mxCell id="mY7H9gLEhY4AyRL41xxg-211" value="&lt;div&gt;&lt;br&gt;&lt;/div&gt;" style="rounded=0;whiteSpace=wrap;html=1;fillColor=none;" vertex="1" parent="mY7H9gLEhY4AyRL41xxg-239">
          <mxGeometry width="440" height="310" as="geometry" />
        </mxCell>
        <mxCell id="mY7H9gLEhY4AyRL41xxg-212" value="Channel" style="text;strokeColor=none;align=center;fillColor=none;html=1;verticalAlign=middle;whiteSpace=wrap;rounded=0;" vertex="1" parent="mY7H9gLEhY4AyRL41xxg-239">
          <mxGeometry x="140" y="18" width="60" height="30" as="geometry" />
        </mxCell>
        <mxCell id="mY7H9gLEhY4AyRL41xxg-227" value="" style="group" vertex="1" connectable="0" parent="mY7H9gLEhY4AyRL41xxg-239">
          <mxGeometry x="20" y="66" width="302" height="30" as="geometry" />
        </mxCell>
        <mxCell id="mY7H9gLEhY4AyRL41xxg-218" value="_id" style="text;strokeColor=none;align=center;fillColor=none;html=1;verticalAlign=middle;whiteSpace=wrap;rounded=0;" vertex="1" parent="mY7H9gLEhY4AyRL41xxg-227">
          <mxGeometry width="60" height="30" as="geometry" />
        </mxCell>
        <mxCell id="mY7H9gLEhY4AyRL41xxg-230" value="" style="group" vertex="1" connectable="0" parent="mY7H9gLEhY4AyRL41xxg-239">
          <mxGeometry x="20" y="98" width="400" height="30" as="geometry" />
        </mxCell>
        <mxCell id="mY7H9gLEhY4AyRL41xxg-231" value="" style="edgeStyle=orthogonalEdgeStyle;rounded=0;orthogonalLoop=1;jettySize=auto;html=1;" edge="1" parent="mY7H9gLEhY4AyRL41xxg-230" source="mY7H9gLEhY4AyRL41xxg-232" target="mY7H9gLEhY4AyRL41xxg-233">
          <mxGeometry relative="1" as="geometry" />
        </mxCell>
        <mxCell id="mY7H9gLEhY4AyRL41xxg-232" value="owner_id" style="text;strokeColor=none;align=center;fillColor=none;html=1;verticalAlign=middle;whiteSpace=wrap;rounded=0;" vertex="1" parent="mY7H9gLEhY4AyRL41xxg-230">
          <mxGeometry width="61.58940397350993" height="30" as="geometry" />
        </mxCell>
        <mxCell id="mY7H9gLEhY4AyRL41xxg-233" value="User Model object id" style="text;strokeColor=none;align=center;fillColor=none;html=1;verticalAlign=middle;whiteSpace=wrap;rounded=0;" vertex="1" parent="mY7H9gLEhY4AyRL41xxg-230">
          <mxGeometry x="280" width="120" height="30" as="geometry" />
        </mxCell>
        <mxCell id="mY7H9gLEhY4AyRL41xxg-225" value="object id" style="text;strokeColor=none;align=center;fillColor=none;html=1;verticalAlign=middle;whiteSpace=wrap;rounded=0;" vertex="1" parent="mY7H9gLEhY4AyRL41xxg-239">
          <mxGeometry x="360" y="66" width="60" height="30" as="geometry" />
        </mxCell>
        <mxCell id="mY7H9gLEhY4AyRL41xxg-226" value="" style="edgeStyle=orthogonalEdgeStyle;rounded=0;orthogonalLoop=1;jettySize=auto;html=1;" edge="1" parent="mY7H9gLEhY4AyRL41xxg-239" source="mY7H9gLEhY4AyRL41xxg-218" target="mY7H9gLEhY4AyRL41xxg-225">
          <mxGeometry relative="1" as="geometry" />
        </mxCell>
        <mxCell id="mY7H9gLEhY4AyRL41xxg-305" value="" style="group" vertex="1" connectable="0" parent="mY7H9gLEhY4AyRL41xxg-239">
          <mxGeometry x="20" y="138" width="390" height="30" as="geometry" />
        </mxCell>
        <mxCell id="mY7H9gLEhY4AyRL41xxg-234" value="" style="group" vertex="1" connectable="0" parent="mY7H9gLEhY4AyRL41xxg-305">
          <mxGeometry width="302" height="30" as="geometry" />
        </mxCell>
        <mxCell id="mY7H9gLEhY4AyRL41xxg-236" value="name" style="text;strokeColor=none;align=center;fillColor=none;html=1;verticalAlign=middle;whiteSpace=wrap;rounded=0;" vertex="1" parent="mY7H9gLEhY4AyRL41xxg-234">
          <mxGeometry width="60" height="30" as="geometry" />
        </mxCell>
        <mxCell id="mY7H9gLEhY4AyRL41xxg-237" value="string" style="text;strokeColor=none;align=center;fillColor=none;html=1;verticalAlign=middle;whiteSpace=wrap;rounded=0;" vertex="1" parent="mY7H9gLEhY4AyRL41xxg-305">
          <mxGeometry x="330" width="60" height="30" as="geometry" />
        </mxCell>
        <mxCell id="mY7H9gLEhY4AyRL41xxg-235" value="" style="edgeStyle=orthogonalEdgeStyle;rounded=0;orthogonalLoop=1;jettySize=auto;html=1;" edge="1" parent="mY7H9gLEhY4AyRL41xxg-305" source="mY7H9gLEhY4AyRL41xxg-236" target="mY7H9gLEhY4AyRL41xxg-237">
          <mxGeometry relative="1" as="geometry" />
        </mxCell>
        <mxCell id="mY7H9gLEhY4AyRL41xxg-240" value="" style="group" vertex="1" connectable="0" parent="1">
          <mxGeometry x="1330" y="40" width="472" height="310" as="geometry" />
        </mxCell>
        <mxCell id="mY7H9gLEhY4AyRL41xxg-271" value="" style="group" vertex="1" connectable="0" parent="mY7H9gLEhY4AyRL41xxg-240">
          <mxGeometry width="440" height="310" as="geometry" />
        </mxCell>
        <mxCell id="mY7H9gLEhY4AyRL41xxg-241" value="&lt;div&gt;&lt;br&gt;&lt;/div&gt;" style="rounded=0;whiteSpace=wrap;html=1;fillColor=none;" vertex="1" parent="mY7H9gLEhY4AyRL41xxg-271">
          <mxGeometry width="440" height="310" as="geometry" />
        </mxCell>
        <mxCell id="mY7H9gLEhY4AyRL41xxg-242" value="Rules" style="text;strokeColor=none;align=center;fillColor=none;html=1;verticalAlign=middle;whiteSpace=wrap;rounded=0;" vertex="1" parent="mY7H9gLEhY4AyRL41xxg-271">
          <mxGeometry x="140" y="18" width="60" height="30" as="geometry" />
        </mxCell>
        <mxCell id="mY7H9gLEhY4AyRL41xxg-243" value="" style="group" vertex="1" connectable="0" parent="mY7H9gLEhY4AyRL41xxg-271">
          <mxGeometry x="20" y="66" width="302" height="30" as="geometry" />
        </mxCell>
        <mxCell id="mY7H9gLEhY4AyRL41xxg-244" value="_id" style="text;strokeColor=none;align=center;fillColor=none;html=1;verticalAlign=middle;whiteSpace=wrap;rounded=0;" vertex="1" parent="mY7H9gLEhY4AyRL41xxg-243">
          <mxGeometry width="60" height="30" as="geometry" />
        </mxCell>
        <mxCell id="mY7H9gLEhY4AyRL41xxg-245" value="" style="group" vertex="1" connectable="0" parent="mY7H9gLEhY4AyRL41xxg-271">
          <mxGeometry x="20" y="98" width="400" height="30" as="geometry" />
        </mxCell>
        <mxCell id="mY7H9gLEhY4AyRL41xxg-246" value="" style="edgeStyle=orthogonalEdgeStyle;rounded=0;orthogonalLoop=1;jettySize=auto;html=1;" edge="1" parent="mY7H9gLEhY4AyRL41xxg-245" source="mY7H9gLEhY4AyRL41xxg-247" target="mY7H9gLEhY4AyRL41xxg-248">
          <mxGeometry relative="1" as="geometry" />
        </mxCell>
        <mxCell id="mY7H9gLEhY4AyRL41xxg-247" value="owner_id" style="text;strokeColor=none;align=center;fillColor=none;html=1;verticalAlign=middle;whiteSpace=wrap;rounded=0;" vertex="1" parent="mY7H9gLEhY4AyRL41xxg-245">
          <mxGeometry width="61.58940397350993" height="30" as="geometry" />
        </mxCell>
        <mxCell id="mY7H9gLEhY4AyRL41xxg-248" value="User Model object id" style="text;strokeColor=none;align=center;fillColor=none;html=1;verticalAlign=middle;whiteSpace=wrap;rounded=0;" vertex="1" parent="mY7H9gLEhY4AyRL41xxg-245">
          <mxGeometry x="280" width="120" height="30" as="geometry" />
        </mxCell>
        <mxCell id="mY7H9gLEhY4AyRL41xxg-249" value="" style="group" vertex="1" connectable="0" parent="mY7H9gLEhY4AyRL41xxg-271">
          <mxGeometry x="20" y="138" width="302" height="30" as="geometry" />
        </mxCell>
        <mxCell id="mY7H9gLEhY4AyRL41xxg-250" value="channel_id" style="text;strokeColor=none;align=center;fillColor=none;html=1;verticalAlign=middle;whiteSpace=wrap;rounded=0;" vertex="1" parent="mY7H9gLEhY4AyRL41xxg-249">
          <mxGeometry width="60" height="30" as="geometry" />
        </mxCell>
        <mxCell id="mY7H9gLEhY4AyRL41xxg-251" value="object id" style="text;strokeColor=none;align=center;fillColor=none;html=1;verticalAlign=middle;whiteSpace=wrap;rounded=0;" vertex="1" parent="mY7H9gLEhY4AyRL41xxg-271">
          <mxGeometry x="360" y="66" width="60" height="30" as="geometry" />
        </mxCell>
        <mxCell id="mY7H9gLEhY4AyRL41xxg-252" value="" style="edgeStyle=orthogonalEdgeStyle;rounded=0;orthogonalLoop=1;jettySize=auto;html=1;" edge="1" parent="mY7H9gLEhY4AyRL41xxg-271" source="mY7H9gLEhY4AyRL41xxg-244" target="mY7H9gLEhY4AyRL41xxg-251">
          <mxGeometry relative="1" as="geometry" />
        </mxCell>
        <mxCell id="mY7H9gLEhY4AyRL41xxg-253" value="Channel Model object id" style="text;strokeColor=none;align=center;fillColor=none;html=1;verticalAlign=middle;whiteSpace=wrap;rounded=0;" vertex="1" parent="mY7H9gLEhY4AyRL41xxg-271">
          <mxGeometry x="350" y="138" width="60" height="52" as="geometry" />
        </mxCell>
        <mxCell id="mY7H9gLEhY4AyRL41xxg-254" value="" style="edgeStyle=orthogonalEdgeStyle;rounded=0;orthogonalLoop=1;jettySize=auto;html=1;" edge="1" parent="mY7H9gLEhY4AyRL41xxg-271" source="mY7H9gLEhY4AyRL41xxg-250" target="mY7H9gLEhY4AyRL41xxg-253">
          <mxGeometry relative="1" as="geometry" />
        </mxCell>
        <mxCell id="mY7H9gLEhY4AyRL41xxg-264" value="" style="group" vertex="1" connectable="0" parent="mY7H9gLEhY4AyRL41xxg-271">
          <mxGeometry x="20" y="190" width="380" height="30" as="geometry" />
        </mxCell>
        <mxCell id="mY7H9gLEhY4AyRL41xxg-257" value="" style="group" vertex="1" connectable="0" parent="mY7H9gLEhY4AyRL41xxg-264">
          <mxGeometry width="50" height="30" as="geometry" />
        </mxCell>
        <mxCell id="mY7H9gLEhY4AyRL41xxg-258" value="Rules" style="text;strokeColor=none;align=center;fillColor=none;html=1;verticalAlign=middle;whiteSpace=wrap;rounded=0;" vertex="1" parent="mY7H9gLEhY4AyRL41xxg-257">
          <mxGeometry width="40" height="30" as="geometry" />
        </mxCell>
        <mxCell id="mY7H9gLEhY4AyRL41xxg-262" value="string" style="text;strokeColor=none;align=center;fillColor=none;html=1;verticalAlign=middle;whiteSpace=wrap;rounded=0;" vertex="1" parent="mY7H9gLEhY4AyRL41xxg-264">
          <mxGeometry x="340" width="40" height="30" as="geometry" />
        </mxCell>
        <mxCell id="mY7H9gLEhY4AyRL41xxg-263" value="" style="edgeStyle=orthogonalEdgeStyle;rounded=0;orthogonalLoop=1;jettySize=auto;html=1;" edge="1" parent="mY7H9gLEhY4AyRL41xxg-264" source="mY7H9gLEhY4AyRL41xxg-258" target="mY7H9gLEhY4AyRL41xxg-262">
          <mxGeometry relative="1" as="geometry" />
        </mxCell>
        <mxCell id="mY7H9gLEhY4AyRL41xxg-267" value="title" style="text;strokeColor=none;align=center;fillColor=none;html=1;verticalAlign=middle;whiteSpace=wrap;rounded=0;" vertex="1" parent="mY7H9gLEhY4AyRL41xxg-271">
          <mxGeometry x="20" y="227" width="40" height="30" as="geometry" />
        </mxCell>
        <mxCell id="mY7H9gLEhY4AyRL41xxg-265" value="" style="group" vertex="1" connectable="0" parent="1">
          <mxGeometry x="1360" y="260" width="380" height="30" as="geometry" />
        </mxCell>
        <mxCell id="mY7H9gLEhY4AyRL41xxg-268" value="string" style="text;strokeColor=none;align=center;fillColor=none;html=1;verticalAlign=middle;whiteSpace=wrap;rounded=0;" vertex="1" parent="mY7H9gLEhY4AyRL41xxg-265">
          <mxGeometry x="340" width="40" height="30" as="geometry" />
        </mxCell>
        <mxCell id="mY7H9gLEhY4AyRL41xxg-269" value="" style="edgeStyle=orthogonalEdgeStyle;rounded=0;orthogonalLoop=1;jettySize=auto;html=1;" edge="1" parent="1" source="mY7H9gLEhY4AyRL41xxg-267" target="mY7H9gLEhY4AyRL41xxg-268">
          <mxGeometry relative="1" as="geometry" />
        </mxCell>
        <mxCell id="mY7H9gLEhY4AyRL41xxg-272" value="" style="rounded=0;whiteSpace=wrap;html=1;" vertex="1" parent="1">
          <mxGeometry x="960" y="390" width="320" height="280" as="geometry" />
        </mxCell>
        <mxCell id="mY7H9gLEhY4AyRL41xxg-273" value="Permissions" style="text;strokeColor=none;align=center;fillColor=none;html=1;verticalAlign=middle;whiteSpace=wrap;rounded=0;" vertex="1" parent="1">
          <mxGeometry x="1080" y="420" width="60" height="30" as="geometry" />
        </mxCell>
        <mxCell id="mY7H9gLEhY4AyRL41xxg-279" value="" style="edgeStyle=orthogonalEdgeStyle;rounded=0;orthogonalLoop=1;jettySize=auto;html=1;" edge="1" parent="1" source="mY7H9gLEhY4AyRL41xxg-276" target="mY7H9gLEhY4AyRL41xxg-277">
          <mxGeometry relative="1" as="geometry">
            <mxPoint x="1120.0000000000002" y="514.9999999999999" as="targetPoint" />
          </mxGeometry>
        </mxCell>
        <mxCell id="mY7H9gLEhY4AyRL41xxg-276" value="_id" style="text;strokeColor=none;align=center;fillColor=none;html=1;verticalAlign=middle;whiteSpace=wrap;rounded=0;" vertex="1" parent="1">
          <mxGeometry x="990" y="500" width="60" height="30" as="geometry" />
        </mxCell>
        <mxCell id="mY7H9gLEhY4AyRL41xxg-277" value="object_id" style="text;strokeColor=none;align=center;fillColor=none;html=1;verticalAlign=middle;whiteSpace=wrap;rounded=0;" vertex="1" parent="1">
          <mxGeometry x="1170" y="505" width="60" height="30" as="geometry" />
        </mxCell>
        <mxCell id="mY7H9gLEhY4AyRL41xxg-283" style="edgeStyle=orthogonalEdgeStyle;rounded=0;orthogonalLoop=1;jettySize=auto;html=1;exitX=0.5;exitY=1;exitDx=0;exitDy=0;" edge="1" parent="1" source="mY7H9gLEhY4AyRL41xxg-272" target="mY7H9gLEhY4AyRL41xxg-272">
          <mxGeometry relative="1" as="geometry" />
        </mxCell>
        <mxCell id="mY7H9gLEhY4AyRL41xxg-287" value="" style="group" vertex="1" connectable="0" parent="1">
          <mxGeometry x="990" y="535" width="240" height="30" as="geometry" />
        </mxCell>
        <mxCell id="mY7H9gLEhY4AyRL41xxg-282" value="" style="edgeStyle=orthogonalEdgeStyle;rounded=0;orthogonalLoop=1;jettySize=auto;html=1;" edge="1" parent="mY7H9gLEhY4AyRL41xxg-287" source="mY7H9gLEhY4AyRL41xxg-275" target="mY7H9gLEhY4AyRL41xxg-281">
          <mxGeometry relative="1" as="geometry" />
        </mxCell>
        <mxCell id="mY7H9gLEhY4AyRL41xxg-275" value="name" style="text;strokeColor=none;align=center;fillColor=none;html=1;verticalAlign=middle;whiteSpace=wrap;rounded=0;" vertex="1" parent="mY7H9gLEhY4AyRL41xxg-287">
          <mxGeometry width="50" height="30" as="geometry" />
        </mxCell>
        <mxCell id="mY7H9gLEhY4AyRL41xxg-281" value="string" style="text;strokeColor=none;align=center;fillColor=none;html=1;verticalAlign=middle;whiteSpace=wrap;rounded=0;" vertex="1" parent="mY7H9gLEhY4AyRL41xxg-287">
          <mxGeometry x="190" width="50" height="30" as="geometry" />
        </mxCell>
        <mxCell id="mY7H9gLEhY4AyRL41xxg-292" value="" style="group" vertex="1" connectable="0" parent="1">
          <mxGeometry x="990" y="570" width="240" height="30" as="geometry" />
        </mxCell>
        <mxCell id="mY7H9gLEhY4AyRL41xxg-293" value="" style="edgeStyle=orthogonalEdgeStyle;rounded=0;orthogonalLoop=1;jettySize=auto;html=1;" edge="1" parent="mY7H9gLEhY4AyRL41xxg-292" source="mY7H9gLEhY4AyRL41xxg-294" target="mY7H9gLEhY4AyRL41xxg-295">
          <mxGeometry relative="1" as="geometry" />
        </mxCell>
        <mxCell id="mY7H9gLEhY4AyRL41xxg-294" value="user_id" style="text;strokeColor=none;align=center;fillColor=none;html=1;verticalAlign=middle;whiteSpace=wrap;rounded=0;" vertex="1" parent="mY7H9gLEhY4AyRL41xxg-292">
          <mxGeometry width="50" height="30" as="geometry" />
        </mxCell>
        <mxCell id="mY7H9gLEhY4AyRL41xxg-295" value="object" style="text;strokeColor=none;align=center;fillColor=none;html=1;verticalAlign=middle;whiteSpace=wrap;rounded=0;" vertex="1" parent="mY7H9gLEhY4AyRL41xxg-292">
          <mxGeometry x="190" width="50" height="30" as="geometry" />
        </mxCell>
        <mxCell id="mY7H9gLEhY4AyRL41xxg-301" value="" style="group" vertex="1" connectable="0" parent="1">
          <mxGeometry x="990" y="600" width="240" height="30" as="geometry" />
        </mxCell>
        <mxCell id="mY7H9gLEhY4AyRL41xxg-302" value="" style="edgeStyle=orthogonalEdgeStyle;rounded=0;orthogonalLoop=1;jettySize=auto;html=1;" edge="1" parent="mY7H9gLEhY4AyRL41xxg-301" source="mY7H9gLEhY4AyRL41xxg-303" target="mY7H9gLEhY4AyRL41xxg-304">
          <mxGeometry relative="1" as="geometry" />
        </mxCell>
        <mxCell id="mY7H9gLEhY4AyRL41xxg-303" value="channel_id" style="text;strokeColor=none;align=center;fillColor=none;html=1;verticalAlign=middle;whiteSpace=wrap;rounded=0;" vertex="1" parent="mY7H9gLEhY4AyRL41xxg-301">
          <mxGeometry width="50" height="30" as="geometry" />
        </mxCell>
        <mxCell id="mY7H9gLEhY4AyRL41xxg-304" value="object" style="text;strokeColor=none;align=center;fillColor=none;html=1;verticalAlign=middle;whiteSpace=wrap;rounded=0;" vertex="1" parent="mY7H9gLEhY4AyRL41xxg-301">
          <mxGeometry x="190" width="50" height="30" as="geometry" />
        </mxCell>
        <mxCell id="mY7H9gLEhY4AyRL41xxg-306" value="" style="group" vertex="1" connectable="0" parent="1">
          <mxGeometry x="885" y="220" width="390" height="30" as="geometry" />
        </mxCell>
        <mxCell id="mY7H9gLEhY4AyRL41xxg-307" value="" style="group" vertex="1" connectable="0" parent="mY7H9gLEhY4AyRL41xxg-306">
          <mxGeometry width="302" height="30" as="geometry" />
        </mxCell>
        <mxCell id="mY7H9gLEhY4AyRL41xxg-308" value="is_private" style="text;strokeColor=none;align=center;fillColor=none;html=1;verticalAlign=middle;whiteSpace=wrap;rounded=0;" vertex="1" parent="mY7H9gLEhY4AyRL41xxg-307">
          <mxGeometry width="60" height="30" as="geometry" />
        </mxCell>
        <mxCell id="mY7H9gLEhY4AyRL41xxg-309" value="boolean" style="text;strokeColor=none;align=center;fillColor=none;html=1;verticalAlign=middle;whiteSpace=wrap;rounded=0;" vertex="1" parent="mY7H9gLEhY4AyRL41xxg-306">
          <mxGeometry x="330" width="60" height="30" as="geometry" />
        </mxCell>
        <mxCell id="mY7H9gLEhY4AyRL41xxg-310" value="" style="edgeStyle=orthogonalEdgeStyle;rounded=0;orthogonalLoop=1;jettySize=auto;html=1;" edge="1" parent="mY7H9gLEhY4AyRL41xxg-306" source="mY7H9gLEhY4AyRL41xxg-308" target="mY7H9gLEhY4AyRL41xxg-309">
          <mxGeometry relative="1" as="geometry" />
        </mxCell>
      </root>
    </mxGraphModel>
  </diagram>
</mxfile>
